<?xml version="1.0" encoding="utf-8"?>
<!-- Generator: Adobe Illustrator 16.0.0, SVG Export Plug-In . SVG Version: 6.00 Build 0)  -->
<!DOCTYPE svg PUBLIC "-//W3C//DTD SVG 1.1//EN" "http://www.w3.org/Graphics/SVG/1.1/DTD/svg11.dtd">
<svg version="1.1" xmlns="http://www.w3.org/2000/svg" xmlns:xlink="http://www.w3.org/1999/xlink" x="0px" y="0px" width="332px"
	 height="319px" viewBox="0 0 332 319" enable-background="new 0 0 332 319" xml:space="preserve">
<g id="Ebene_1">
	<g>
		<defs>
			<rect id="SVGID_1_" x="-112" y="-55" width="600" height="400"/>
		</defs>
		<clipPath id="SVGID_2_">
			<use xlink:href="#SVGID_1_"  overflow="visible"/>
		</clipPath>
		<path clip-path="url(#SVGID_2_)" d="M313.158,161.421c0,82.242-66.67,148.912-148.912,148.912
			c-82.243,0-148.912-66.67-148.912-148.912c0-82.243,66.669-148.914,148.912-148.914
			C246.488,12.507,313.158,79.178,313.158,161.421"/>
		
			<circle clip-path="url(#SVGID_2_)" fill="none" stroke="#000000" stroke-width="4" stroke-miterlimit="10" cx="164.246" cy="161.421" r="148.912"/>
	</g>
	<g>
		<defs>
			<rect id="SVGID_3_" x="-112" y="-55" width="600" height="400"/>
		</defs>
		<clipPath id="SVGID_4_">
			<use xlink:href="#SVGID_3_"  overflow="visible"/>
		</clipPath>
		<path clip-path="url(#SVGID_4_)" d="M305.82,161.015c0,77.966-63.205,141.17-141.17,141.17S23.481,238.98,23.481,161.015
			c0-77.967,63.204-141.17,141.169-141.17S305.82,83.048,305.82,161.015"/>
		
			<circle clip-path="url(#SVGID_4_)" fill="none" stroke="#FFFFFF" stroke-width="4" stroke-miterlimit="10" cx="164.651" cy="161.015" r="141.169"/>
	</g>
	<g>
		<defs>
			<rect id="SVGID_5_" x="-112" y="-55" width="600" height="400"/>
		</defs>
		<clipPath id="SVGID_6_">
			<use xlink:href="#SVGID_5_"  overflow="visible"/>
		</clipPath>
		<path clip-path="url(#SVGID_6_)" d="M164.553,262.332c-55.845,0-101.279-45.434-101.279-101.279
			c0-55.845,45.434-101.277,101.279-101.277s101.278,45.433,101.278,101.277C265.831,216.898,220.398,262.332,164.553,262.332"/>
		<path clip-path="url(#SVGID_6_)" fill="#FFFFFF" d="M164.553,60.775c55.383,0,100.278,44.896,100.278,100.277
			c0,55.384-44.895,100.279-100.278,100.279c-55.383,0-100.279-44.896-100.279-100.279C64.274,105.671,109.17,60.775,164.553,60.775
			 M164.553,58.775c-56.397,0-102.279,45.881-102.279,102.277c0,56.397,45.882,102.279,102.279,102.279
			c56.396,0,102.278-45.882,102.278-102.279C266.831,104.656,220.949,58.775,164.553,58.775"/>
	</g>
	<g>
		<defs>
			<rect id="SVGID_7_" x="-112" y="-55" width="600" height="400"/>
		</defs>
		<clipPath id="SVGID_8_">
			<use xlink:href="#SVGID_7_"  overflow="visible"/>
		</clipPath>
		<path clip-path="url(#SVGID_8_)" d="M256.333,160.665c0,50.626-41.041,91.667-91.667,91.667
			c-50.625,0-91.666-41.041-91.666-91.667c0-50.625,41.041-91.666,91.666-91.666C215.292,68.999,256.333,110.04,256.333,160.665"/>
		<path clip-path="url(#SVGID_8_)" d="M256.333,160.665c0,50.626-41.041,91.667-91.667,91.667
			c-50.625,0-91.666-41.041-91.666-91.667c0-50.625,41.041-91.666,91.666-91.666C215.292,68.999,256.333,110.04,256.333,160.665"/>
		<path display="none" clip-path="url(#SVGID_8_)" fill="#FFFFFF" d="M164.667,63L164.667,63h-0.059c-1.657,0-3,1.344-2.999,3.001
			C161.61,67.657,162.954,69,164.61,69h0.001h0.055c1.657,0,3-1.344,3-3.001C167.667,64.343,166.323,63,164.667,63 M147.159,64.616
			c-0.184,0-0.369,0.017-0.556,0.052l-0.058,0.01c-1.628,0.305-2.701,1.873-2.395,3.502c0.271,1.441,1.531,2.447,2.946,2.447
			c0.184,0,0.37-0.018,0.556-0.051c0.015-0.003,0.03-0.006,0.045-0.01c0.002,0,0.011-0.002,0.014-0.002
			c1.626-0.308,2.696-1.873,2.392-3.5C149.834,65.622,148.574,64.616,147.159,64.616 M130.241,69.453
			c-0.363,0-0.732,0.066-1.091,0.207l-0.055,0.021c-1.543,0.603-2.304,2.342-1.701,3.885c0.464,1.185,1.597,1.908,2.796,1.908
			c0.361,0,0.728-0.064,1.084-0.203c0.011-0.004,0.021-0.008,0.032-0.013c0.007-0.003,0.015-0.006,0.022-0.008l0.006-0.003
			c1.542-0.604,2.304-2.344,1.702-3.887C132.573,70.177,131.441,69.453,130.241,69.453 M114.523,77.354
			c-0.543,0-1.094,0.147-1.588,0.457l-0.05,0.031c-1.404,0.879-1.83,2.73-0.95,4.135c0.569,0.908,1.547,1.407,2.546,1.407
			c0.541,0,1.089-0.146,1.582-0.452c0.02-0.014,0.037-0.023,0.056-0.035c1.403-0.881,1.828-2.73,0.95-4.135
			C116.5,77.854,115.523,77.354,114.523,77.354 M100.544,88.021c-0.726,0-1.455,0.263-2.032,0.793l-0.043,0.041
			c-1.218,1.123-1.295,3.021-0.172,4.238c0.592,0.641,1.398,0.967,2.207,0.967c0.727,0,1.456-0.264,2.033-0.795
			c0.001-0.002,0.003-0.002,0.004-0.004c0.013-0.012,0.029-0.027,0.042-0.037c1.213-1.125,1.289-3.019,0.168-4.235
			C102.159,88.348,101.354,88.021,100.544,88.021 M88.768,101.079c-0.914,0-1.817,0.417-2.405,1.206l-0.036,0.047
			c-0.99,1.328-0.717,3.207,0.611,4.197c0.539,0.402,1.168,0.596,1.792,0.596c0.915,0,1.818-0.416,2.407-1.206
			c0.011-0.015,0.022-0.03,0.033-0.044c0.991-1.328,0.718-3.208-0.609-4.2C90.022,101.273,89.392,101.079,88.768,101.079
			 M79.598,116.087c-1.109,0-2.176,0.618-2.696,1.683l-0.026,0.051c-0.728,1.49-0.112,3.285,1.377,4.014
			c0.424,0.207,0.873,0.305,1.316,0.305c1.109,0,2.175-0.617,2.696-1.68c0.001-0.002,0.003-0.006,0.005-0.009
			c0.007-0.015,0.013-0.029,0.021-0.043c0.728-1.488,0.112-3.285-1.376-4.015C80.49,116.186,80.042,116.087,79.598,116.087
			 M73.368,132.541c-1.317,0-2.525,0.874-2.89,2.206l-0.015,0.058c-0.439,1.596,0.502,3.247,2.099,3.684
			c0.266,0.074,0.532,0.109,0.795,0.109c1.318,0,2.527-0.877,2.892-2.209c0.003-0.011,0.007-0.021,0.01-0.033
			c0-0.002,0.002-0.008,0.002-0.012c0.001-0.003,0.002-0.006,0.003-0.008c0.438-1.598-0.502-3.249-2.1-3.688
			C73.899,132.575,73.631,132.541,73.368,132.541 M70.313,149.862c-1.546,0-2.858,1.188-2.986,2.757l-0.005,0.058
			c-0.134,1.652,1.096,3.099,2.748,3.232c0.082,0.007,0.164,0.011,0.245,0.011c1.545,0,2.856-1.186,2.987-2.751
			c0.002-0.021,0.004-0.048,0.006-0.068c0.13-1.649-1.098-3.094-2.748-3.228C70.478,149.866,70.396,149.862,70.313,149.862
			 M70.502,167.445c-0.102,0-0.205,0.006-0.31,0.017c-1.648,0.169-2.847,1.644-2.677,3.29l0.006,0.059
			c0.159,1.543,1.462,2.692,2.98,2.692c0.103,0,0.207-0.006,0.312-0.017c1.648-0.17,2.846-1.644,2.676-3.292
			c-0.001-0.019-0.003-0.037-0.005-0.055C73.325,168.596,72.021,167.445,70.502,167.445 M73.918,184.7
			c-0.284,0-0.571,0.04-0.857,0.125c-1.588,0.473-2.492,2.143-2.019,3.73l0.017,0.057c0.388,1.302,1.58,2.144,2.873,2.144
			c0.284,0,0.572-0.041,0.858-0.126c1.585-0.473,2.488-2.138,2.022-3.723c-0.004-0.011-0.008-0.023-0.011-0.035v-0.001
			c-0.003-0.012-0.006-0.02-0.009-0.031C76.402,185.54,75.21,184.7,73.918,184.7 M80.486,201.018c-0.463,0-0.934,0.108-1.373,0.335
			c-1.473,0.76-2.05,2.569-1.29,4.041l0.027,0.053c0.533,1.031,1.581,1.623,2.667,1.623c0.464,0,0.934-0.107,1.374-0.335
			c1.471-0.76,2.049-2.567,1.291-4.039l-0.011-0.021c-0.004-0.008-0.008-0.016-0.013-0.024c-0.001-0.002-0.003-0.006-0.004-0.009
			C82.62,201.609,81.572,201.018,80.486,201.018 M89.969,215.831c-0.645,0-1.295,0.207-1.843,0.634
			c-1.306,1.02-1.539,2.904-0.52,4.21l0.036,0.047c0.591,0.759,1.474,1.154,2.367,1.154c0.645,0,1.295-0.207,1.843-0.636
			c1.304-1.019,1.538-2.9,0.522-4.207l-0.016-0.021c-0.007-0.009-0.014-0.018-0.021-0.027
			C91.746,216.228,90.862,215.831,89.969,215.831 M102.021,228.64c-0.83,0-1.657,0.343-2.25,1.015
			c-1.097,1.243-0.979,3.138,0.263,4.233l0.044,0.039c0.57,0.504,1.278,0.751,1.983,0.751c0.831,0,1.657-0.343,2.25-1.015
			c1.096-1.243,0.978-3.139-0.264-4.235c-0.011-0.01-0.022-0.02-0.034-0.03c-0.002-0.001-0.008-0.008-0.011-0.01
			C103.432,228.887,102.725,228.64,102.021,228.64 M116.224,239.013c-1.022,0-2.018,0.522-2.58,1.464
			c-0.849,1.423-0.384,3.264,1.039,4.112l0.051,0.03c0.481,0.287,1.011,0.424,1.533,0.424c1.022,0,2.018-0.521,2.579-1.464
			c0.849-1.424,0.383-3.265-1.041-4.114c-0.007-0.004-0.015-0.009-0.024-0.014c-0.009-0.006-0.017-0.011-0.027-0.017
			C117.274,239.148,116.745,239.013,116.224,239.013 M132.101,246.58c-1.224,0-2.373,0.754-2.818,1.97
			c-0.57,1.557,0.229,3.278,1.785,3.848l0.055,0.021c0.34,0.124,0.688,0.184,1.031,0.184c1.223,0,2.372-0.754,2.816-1.971
			c0.569-1.556-0.231-3.278-1.786-3.849c-0.018-0.006-0.035-0.013-0.052-0.019C132.792,246.639,132.444,246.58,132.101,246.58
			 M149.109,251.06c-1.442,0-2.715,1.042-2.957,2.512c-0.271,1.635,0.835,3.179,2.47,3.448l0.058,0.01
			c0.165,0.027,0.33,0.04,0.492,0.04c1.442,0,2.713-1.042,2.955-2.512c0.27-1.635-0.837-3.179-2.472-3.448
			c-0.018-0.003-0.036-0.007-0.054-0.01C149.435,251.072,149.271,251.06,149.109,251.06 M166.709,252h-0.055
			c-0.022,0-0.045,0.156-0.067,0.157c-1.655,0.036-2.968,1.328-2.934,2.983c0.034,1.636,1.37,2.859,2.997,2.859h0.064h0.059
			c1.656,0,2.97-1.406,2.935-3.063C169.674,253.303,168.337,252,166.709,252 M184.185,250.317c-0.203,0-0.408,0.021-0.614,0.063
			c-0.009,0.001-0.018,0.003-0.027,0.005c-0.006,0.002-0.012,0.003-0.017,0.004c-0.006,0.001-0.013,0.003-0.018,0.004
			c-1.62,0.342-2.657,1.93-2.318,3.55c0.295,1.415,1.542,2.387,2.932,2.387c0.204,0,0.41-0.021,0.617-0.064l0.058-0.012
			c1.622-0.34,2.661-1.93,2.321-3.551C186.822,251.288,185.575,250.317,184.185,250.317 M200.984,245.112
			c-0.383,0-0.772,0.074-1.147,0.23c-0.017,0.007-0.028,0.013-0.045,0.018c-0.002,0.002-0.005,0.003-0.008,0.004
			c-1.53,0.636-2.256,2.392-1.62,3.922c0.479,1.153,1.596,1.85,2.771,1.85c0.384,0,0.773-0.073,1.149-0.229l0.055-0.023
			c1.53-0.635,2.255-2.391,1.618-3.921C203.277,245.809,202.161,245.112,200.984,245.112 M216.524,236.875
			c-0.564,0-1.136,0.159-1.643,0.491c-0.016,0.011-0.03,0.021-0.046,0.031c-1.386,0.907-1.773,2.768-0.865,4.153
			c0.576,0.879,1.534,1.356,2.512,1.356c0.564,0,1.135-0.159,1.642-0.492l0.049-0.032c1.386-0.908,1.772-2.768,0.863-4.151
			C218.46,237.352,217.502,236.875,216.524,236.875 M230.275,225.909c-0.748,0-1.497,0.278-2.079,0.837
			c-0.009,0.008-0.016,0.015-0.023,0.023c-0.006,0.005-0.011,0.01-0.017,0.016c-1.194,1.147-1.232,3.047-0.085,4.242
			c0.589,0.613,1.376,0.922,2.163,0.922c0.748,0,1.496-0.278,2.078-0.837l0.042-0.041c1.196-1.147,1.232-3.047,0.084-4.241
			C231.85,226.218,231.063,225.909,230.275,225.909 M241.773,212.602c-0.936,0-1.858,0.437-2.444,1.257
			c-0.001,0.002-0.003,0.004-0.004,0.006c-0.011,0.015-0.02,0.027-0.029,0.041c-0.961,1.349-0.648,3.221,0.698,4.184
			c0.529,0.378,1.139,0.56,1.742,0.56c0.936,0,1.857-0.437,2.442-1.257l0.034-0.048c0.963-1.348,0.65-3.222-0.698-4.184
			C242.986,212.783,242.377,212.602,241.773,212.602 M250.618,197.397c-1.133,0-2.217,0.645-2.725,1.738
			c-0.002,0.006-0.004,0.009-0.007,0.015c-0.005,0.011-0.01,0.022-0.016,0.034l-0.002,0.005c-0.695,1.502-0.042,3.285,1.461,3.982
			c0.408,0.189,0.838,0.278,1.26,0.278c1.132,0,2.216-0.644,2.724-1.738l0.024-0.054c0.696-1.503,0.042-3.286-1.461-3.982
			C251.469,197.487,251.04,197.397,250.618,197.397 M256.48,180.813c-1.343,0-2.565,0.908-2.908,2.27
			c-0.004,0.014-0.007,0.027-0.011,0.041c-0.001,0.006-0.002,0.009-0.003,0.015c-0.403,1.605,0.571,3.235,2.177,3.64
			c0.246,0.063,0.493,0.092,0.735,0.092c1.342,0,2.563-0.907,2.906-2.268l0.015-0.057c0.404-1.607-0.571-3.237-2.178-3.641
			C256.969,180.843,256.723,180.813,256.48,180.813 M259.075,163.431c-1.572,0-3.075,1.225-3.075,2.814v0.021v0.027v0.013
			c0,1.653,1.241,3.075,2.895,3.176c0.063,0.004,0.164,0.006,0.225,0.006c1.574,0,2.915-1.227,3.012-2.818l0.014-0.059
			c0.101-1.654-1.196-3.075-2.851-3.175C259.233,163.433,259.136,163.431,259.075,163.431 M258.607,145.856
			c-0.123,0-0.248,0.007-0.374,0.022c-1.644,0.204-2.626,1.703-2.421,3.348c0,0.005,0.188,0.007,0.188,0.011v0.004
			c0,0.014-0.182,0.026-0.182,0.04c0.189,1.519,1.39,2.631,2.882,2.631c0.123,0,0.201-0.007,0.327-0.022
			c1.644-0.204,2.788-1.702,2.584-3.346l-0.02-0.059C261.403,146.967,260.1,145.856,258.607,145.856 M254.813,128.677
			c-0.304,0-0.613,0.048-0.919,0.146c-1.577,0.507-2.445,2.195-1.939,3.773c0.001,0.002,0.002,0.004,0.002,0.006
			c0.002,0.006,0.005,0.014,0.007,0.021c0.001,0.002,0.005,0.011,0.005,0.014c0.001,0.004,0.002,0.008,0.004,0.012
			c0.408,1.272,1.588,2.084,2.856,2.084c0.304,0,0.612-0.045,0.917-0.144c1.577-0.506,2.446-2.194,1.939-3.772l-0.018-0.057
			C257.261,129.488,256.081,128.677,254.813,128.677 M247.886,112.506c-0.484,0-0.976,0.118-1.431,0.365
			c-1.454,0.791-1.993,2.609-1.205,4.064c0.003,0.006,0.005,0.01,0.008,0.015c0.007,0.013,0.014,0.026,0.021,0.038
			c0.544,1.002,1.575,1.568,2.64,1.568c0.483,0,0.975-0.117,1.429-0.363c1.456-0.791,1.995-2.611,1.204-4.067l-0.027-0.052
			C249.979,113.074,248.949,112.506,247.886,112.506 M238.087,97.902c-0.666,0-1.337,0.222-1.894,0.675
			c-1.281,1.045-1.477,2.929-0.438,4.214c0.006,0.006,0.012,0.014,0.017,0.02c0.007,0.008,0.014,0.017,0.021,0.024
			c0.001,0.002,0.003,0.005,0.005,0.007c0.593,0.729,1.457,1.105,2.328,1.105c0.666,0,1.336-0.221,1.893-0.674
			c1.285-1.045,1.479-2.936,0.433-4.219l-0.037-0.047C239.821,98.279,238.957,97.902,238.087,97.902 M225.77,85.355
			c-0.853,0-1.698,0.36-2.292,1.063c-1.069,1.266-0.912,3.158,0.353,4.229c0.009,0.008,0.021,0.018,0.029,0.024
			c0.004,0.003,0.009,0.007,0.013,0.011c0.563,0.478,1.253,0.711,1.938,0.711c0.852,0,1.698-0.361,2.291-1.062
			c1.071-1.265,0.914-3.158-0.351-4.228l-0.045-0.039C227.142,85.588,226.453,85.355,225.77,85.355 M211.349,75.29
			c-1.044,0-2.059,0.545-2.61,1.519c-0.818,1.44-0.313,3.272,1.127,4.09c0.016,0.01,0.031,0.019,0.048,0.027
			c0.468,0.266,0.977,0.393,1.479,0.393c1.044,0,2.059-0.545,2.611-1.519c0.819-1.44,0.315-3.271-1.125-4.09l-0.051-0.028
			C212.359,75.416,211.851,75.29,211.349,75.29 M195.306,68.068c-1.247,0-2.411,0.783-2.837,2.029
			c-0.536,1.567,0.3,3.273,1.867,3.811c0.018,0.006,0.035,0.011,0.052,0.017c0.322,0.111,0.65,0.163,0.972,0.163
			c1.248,0,2.412-0.783,2.839-2.029c0.537-1.567-0.298-3.272-1.865-3.81l-0.056-0.019C195.955,68.12,195.628,68.068,195.306,68.068
			 M178.197,63.96c-1.468,0-2.751,1.079-2.965,2.574c-0.235,1.64,0.904,3.159,2.544,3.396c0.009,0.002,0.018,0.004,0.026,0.004
			l0.009,0.002c0.007,0,0.013,0.002,0.02,0.002c0.144,0.021,0.288,0.031,0.429,0.031c1.469,0,2.752-1.078,2.967-2.574
			c0.236-1.641-0.902-3.16-2.542-3.396l-0.058-0.008C178.483,63.971,178.339,63.96,178.197,63.96"/>
		<polygon clip-path="url(#SVGID_8_)" fill="#FFFFFF" points="52,176.666 44.101,172.666 36.328,176.904 37.692,168.156 
			31.258,162.072 40,160.667 43.797,152.668 47.836,160.548 56.617,161.688 50.371,167.963 		"/>
		<polygon clip-path="url(#SVGID_8_)" fill="#FFFFFF" points="218,150.666 210.102,146.666 202.328,150.904 203.691,142.156 
			197.258,136.072 206,134.667 209.797,126.668 213.836,134.548 222.617,135.688 216.371,141.963 		"/>
		<polygon clip-path="url(#SVGID_8_)" fill="#FFFFFF" points="293,174.666 285.102,170.666 277.328,174.904 278.691,166.156 
			272.258,160.072 281,158.667 284.797,150.668 288.836,158.548 297.617,159.688 291.371,165.963 		"/>
	</g>
	<g>
		<defs>
			<rect id="SVGID_9_" x="-112" y="-55" width="600" height="400"/>
		</defs>
		<clipPath id="SVGID_10_">
			<use xlink:href="#SVGID_9_"  overflow="visible"/>
		</clipPath>
		<path clip-path="url(#SVGID_10_)" d="M164.561,248.332c-48.13,0-87.286-39.156-87.286-87.286s39.156-87.286,87.286-87.286
			s87.286,39.156,87.286,87.286S212.69,248.332,164.561,248.332"/>
		<path clip-path="url(#SVGID_10_)" fill="#FFFFFF" d="M164.561,74.76c47.655,0,86.286,38.631,86.286,86.286
			s-38.631,86.286-86.286,86.286s-86.286-38.631-86.286-86.286S116.905,74.76,164.561,74.76 M164.561,72.76
			c-48.681,0-88.286,39.605-88.286,88.286s39.605,88.286,88.286,88.286c48.681,0,88.286-39.605,88.286-88.286
			S213.241,72.76,164.561,72.76"/>
	</g>
	<g>
		<defs>
			<rect id="SVGID_11_" x="-112" y="-55" width="600" height="400"/>
		</defs>
		<clipPath id="SVGID_12_">
			<use xlink:href="#SVGID_11_"  overflow="visible"/>
		</clipPath>
		<path clip-path="url(#SVGID_12_)" fill="#FFFFFF" d="M247.333,160.833c0,45.747-37.086,82.833-82.833,82.833
			c-45.748,0-82.833-37.086-82.833-82.833C81.667,115.085,118.752,78,164.5,78C210.247,78,247.333,115.085,247.333,160.833"/>
	</g>
	<g>
		<defs>
			<rect id="SVGID_13_" x="135" y="91" width="60" height="139"/>
		</defs>
		<clipPath id="SVGID_14_">
			<use xlink:href="#SVGID_13_"  overflow="visible"/>
		</clipPath>
		<path clip-path="url(#SVGID_14_)" fill-rule="evenodd" clip-rule="evenodd" fill="#FFFFFF" d="M241.867,236.518H87.478V82.127
			h154.389V236.518z M179.162,163.663c3.544-0.892,6.466-2.858,9.12-5.284l0.082-0.076c1.711-1.951,3.447-3.88,5.108-5.873
			c0.33-0.398,0.52-1.045,0.509-1.57c-0.043-1.996-0.112-4.002-0.363-5.979c-0.066-0.522-0.814-0.963-1.26-1.432
			c-0.347-0.364-0.896-0.665-1.002-1.083c-0.077-0.307,0.437-0.748,0.653-1.146c0.264-0.486,0.769-1.057,0.667-1.468
			c-0.129-0.526-0.711-0.989-1.191-1.358c-0.234-0.18-0.682-0.08-1.074-0.109c-0.121-0.654-0.231-1.247-0.343-1.846
			c0.149-0.113,0.255-0.239,0.389-0.287c0.739-0.268,1.222-0.645,1.111-1.57c-0.107-0.911-0.545-1.209-1.414-1.247
			c-0.264-0.011-0.705-0.494-0.711-0.769c-0.008-0.438,0.232-0.906,0.452-1.317c0.271-0.505,0.842-0.935,0.913-1.446
			c0.234-1.675-1.136-1.621-2.206-1.725c-0.271-0.982-0.454-1.732,0.66-2.282c0.385-0.19,0.646-1.071,0.582-1.59
			c-0.049-0.401-0.652-0.791-1.083-1.071c-0.32-0.209-0.759-0.238-1.45-0.433c0.278-0.56,0.519-1.028,0.744-1.503
			c0.297-0.628,0.769-1.245,0.824-1.896c0.076-0.873-0.512-1.326-1.459-1.41c-0.389-0.035-0.868-0.465-1.048-0.84
			c-0.086-0.181,0.444-0.638,0.665-0.988c0.322-0.516,0.904-1.082,0.85-1.565c-0.065-0.567-0.614-1.167-1.1-1.576
			c-0.5-0.421-1.179-0.63-2.081-1.084c1.563-0.655,2.671-1.479,2.14-2.868c-0.351-0.914-1.371-1.572-2.09-2.345
			c-0.27,0.14-0.283,0.033-0.255-0.062c0.026-0.094,0.073-0.221,0.148-0.258c1.677-0.85,1.548-2.297,1.127-3.726
			c-0.315-1.069-0.732-2.159-1.344-3.08c-2.134-3.204-4.548-6.104-8.748-6.599l0.046,0.025c-1.778-0.106-3.556-0.303-5.335-0.305
			c-7.378-0.011-14.652,0.598-21.52,3.657c-7.331,3.265-12.625,9.634-12.027,18.435c0.101,1.502,0.297,2.825,2.06,3.408
			c-0.349,0.489-0.627,0.841-0.864,1.221c-0.613,0.979-0.377,2.592,0.642,2.957c1.68,0.604,0.939,1.215,0.24,2.01
			c-0.813,0.924-0.563,2.478,0.571,2.789c1.726,0.474,1.1,1.182,0.435,2.051c-0.819,1.072-0.628,2.261,0.555,2.761
			c1.214,0.513,1.326,1.06,0.516,2.062c-0.836,1.034-0.618,2.699,0.41,3.037c1.482,0.486,1.303,1.111,0.461,2.072
			c-0.773,0.881-0.471,2.318,0.477,2.657c1.402,0.499,1.512,0.983,0.504,2.217c-0.836,1.022-0.42,2.333,0.851,2.679
			c0.987,0.268,1.232,1.271,0.509,2.079c-1.042,1.163-0.799,2.124,0.675,2.671c0.971,0.359,1.162,1.209,0.481,1.961
			c-0.248,0.274-0.552,0.655-0.544,0.98c0.089,3.909,1.449,7.124,5.166,8.93c1.008,0.491,2.124,0.766,3.115,1.283
			c0.481,0.252,0.997,0.779,1.134,1.281c0.662,2.422,1.096,4.907,1.807,7.311c1.062,3.598,2.328,7.155,4.919,9.977
			c0.934,1.02,1.214,1.941,0.734,3.148c-0.65,1.637-1.696,3.207-1.943,4.898c-1.248,8.567-2.233,17.174-3.439,25.748
			c-0.495,3.516,0.808,5.836,3.955,7.264c0.233,0.105,0.426,0.293,0.657,0.402c2.391,1.121,4.787,2.232,7.18,3.348l-0.055-0.051
			c3.255,1.904,6.406,1.025,9.492-0.426c1.516-0.712,2.292-1.975,2.268-3.714c-0.012-0.942-0.152-1.933,0.904-2.604
			c0.25-0.158,0.155-1,0.079-1.506c-0.182-1.189-0.598-2.358-0.648-3.547c-0.105-2.463-0.075-4.934-0.009-7.399
			c0.019-0.663,0.436-1.306,0.551-1.979c0.201-1.176,0.775-2.591,0.339-3.496c-0.529-1.099-0.593-2.091-0.604-3.183
			c-0.013-1.079-0.056-2.165,0.042-3.237c0.24-2.628,0.583-5.246,0.796-7.877c0.023-0.283-0.499-0.663-0.833-0.91
			c-0.31-0.229-0.741-0.292-1.057-0.515c-0.454-0.319-0.888-0.685-1.264-1.091c-0.364-0.394-0.905-0.861-0.911-1.303
			c-0.017-1.162-0.242-2.439,1.147-3.217c0.576-0.322,1.06-1.008,1.333-1.638c1.018-2.346,0.938-4.724,0.303-7.206
			c-0.653-2.558-1.007-5.197-1.38-7.816c-0.07-0.489,0.384-1.053,0.596-1.582L179.162,163.663z"/>
		<path clip-path="url(#SVGID_14_)" fill-rule="evenodd" clip-rule="evenodd" d="M175.686,92.9c4.199,0.494,6.613,3.395,8.747,6.599
			c0.612,0.921,1.029,2.011,1.345,3.079c0.42,1.43,0.549,2.877-1.127,3.727c-0.076,0.037-0.122,0.164-0.149,0.258
			c-0.028,0.095-0.014,0.201,0.255,0.062c0.72,0.772,1.739,1.431,2.09,2.345c0.531,1.389-0.576,2.213-2.14,2.869
			c0.903,0.453,1.581,0.662,2.081,1.084c0.487,0.408,1.035,1.008,1.1,1.575c0.055,0.484-0.527,1.05-0.85,1.565
			c-0.22,0.351-0.751,0.808-0.665,0.988c0.18,0.375,0.659,0.806,1.048,0.84c0.947,0.084,1.535,0.537,1.459,1.41
			c-0.056,0.65-0.527,1.269-0.824,1.896c-0.225,0.475-0.466,0.943-0.743,1.502c0.69,0.195,1.128,0.225,1.449,0.434
			c0.431,0.28,1.034,0.67,1.083,1.07c0.063,0.52-0.197,1.4-0.582,1.592c-1.114,0.549-0.931,1.299-0.66,2.28
			c1.07,0.104,2.44,0.051,2.206,1.726c-0.071,0.512-0.642,0.94-0.913,1.446c-0.22,0.41-0.46,0.88-0.452,1.318
			c0.006,0.274,0.448,0.757,0.711,0.768c0.869,0.038,1.307,0.337,1.414,1.247c0.11,0.926-0.371,1.303-1.111,1.57
			c-0.134,0.048-0.239,0.174-0.389,0.287c0.111,0.599,0.222,1.191,0.343,1.846c0.393,0.029,0.84-0.07,1.074,0.109
			c0.48,0.369,1.063,0.832,1.191,1.358c0.102,0.411-0.403,0.982-0.667,1.468c-0.217,0.398-0.73,0.84-0.653,1.146
			c0.106,0.418,0.655,0.719,1.002,1.083c0.445,0.469,1.193,0.91,1.26,1.433c0.251,1.977,0.32,3.982,0.363,5.979
			c0.011,0.525-0.179,1.172-0.509,1.57c-1.661,1.993-3.397,3.922-5.107,5.873c1.702-4.242,1.537-8.714,1.602-13.153
			c0.017-1.126-0.635-1.306-1.649-1.162c-5.182,0.731-10.379,1.342-15.553,2.126c-3.224,0.49-6.412,1.212-9.73,1.852
			c0.82,4.569,1.592,8.874,2.374,13.238c3.903-1.65,5.526-4.146,5.392-8.002c-0.041-1.178,0.841-2.292,2.049-2.43
			c1.279-0.145,1.65,0.8,1.865,1.801c0.107,0.497,0.156,1.019,0.144,1.527c-0.091,3.695-1.7,6.498-4.985,8.265
			c-1.293,0.696-2.62,1.328-3.919,1.982c0.456,1.351,0.982,1.491,3.225,0.945c-0.563-0.104-1.126-0.208-2.109-0.39
			c0.808-0.577,1.239-0.914,1.698-1.209c1.902-1.217,3.831-2.394,5.714-3.641c1.466-0.971,2.226-2.387,2.266-4.152
			c0.031-1.33,0.066-2.662,0.008-3.99c-0.056-1.291,0.75-2,1.767-2.096c0.438-0.04,1.306,0.959,1.404,1.578
			c0.213,1.349,0.214,2.778,0.017,4.133c-0.256,1.746-0.792,3.451-1.204,5.158c1.681-0.791,2.773-2.113,2.918-4.086
			c0.128-1.739,0.269-3.487,0.216-5.227c-0.036-1.184,0.405-2.064,1.458-2.156c1.173-0.104,1.212,1.084,1.243,1.924
			c0.046,1.225-0.116,2.456-0.103,3.685c0.035,3.131-1.318,5.394-4.092,6.841c-1,0.521-1.967,1.107-2.939,1.681
			c-0.261,0.155-0.486,0.373-0.727,0.562c0.037,0.068,0.074,0.137,0.111,0.204c0.792-0.164,1.584-0.329,2.376-0.493
			c-0.212,0.529-0.666,1.093-0.595,1.582c0.373,2.619,0.726,5.259,1.38,7.816c0.634,2.482,0.714,4.86-0.303,7.206
			c-0.274,0.63-0.758,1.315-1.334,1.638c-1.389,0.776-1.163,2.055-1.147,3.217c0.006,0.441,0.547,0.909,0.911,1.303
			c0.376,0.406,0.81,0.771,1.264,1.09c0.317,0.224,0.747,0.287,1.058,0.516c0.334,0.247,0.855,0.627,0.833,0.91
			c-0.214,2.631-0.557,5.249-0.797,7.877c-0.098,1.072-0.055,2.158-0.042,3.237c0.012,1.091,0.075,2.084,0.604,3.183
			c0.436,0.905-0.137,2.319-0.338,3.496c-0.116,0.674-0.533,1.316-0.551,1.979c-0.067,2.466-0.097,4.937,0.009,7.399
			c0.049,1.188,0.465,2.357,0.647,3.547c0.076,0.506,0.171,1.348-0.079,1.506c-1.056,0.672-0.916,1.662-0.903,2.604
			c0.023,1.739-0.752,3.001-2.269,3.714c-3.086,1.451-6.236,2.33-9.491,0.426c0.335-0.235,0.885-0.414,0.966-0.717
			c0.234-0.882,0.376-1.814,0.366-2.726c-0.005-0.565-0.35-1.128-0.542-1.691c-0.245,0.044-0.49,0.087-0.736,0.13v5.055
			c-2.393-1.115-4.789-2.227-7.18-3.348c-0.231-0.109-0.424-0.297-0.656-0.402c-3.148-1.428-4.451-3.748-3.955-7.264
			c1.206-8.574,2.19-17.182,3.438-25.748c0.247-1.691,1.293-3.262,1.943-4.898c0.48-1.207,0.201-2.129-0.734-3.148
			c-2.591-2.821-3.856-6.379-4.919-9.977c-0.711-2.404-1.145-4.889-1.807-7.311c-0.136-0.502-0.653-1.029-1.133-1.281
			c-0.992-0.518-2.108-0.792-3.116-1.283c-3.716-1.806-5.077-5.021-5.166-8.93c-0.007-0.325,0.296-0.706,0.544-0.98
			c0.681-0.752,0.491-1.602-0.481-1.961c-1.474-0.547-1.717-1.508-0.675-2.671c0.724-0.808,0.479-1.812-0.509-2.079
			c-1.27-0.346-1.686-1.656-0.85-2.68c1.007-1.232,0.897-1.717-0.504-2.216c-0.948-0.338-1.25-1.776-0.478-2.658
			c0.842-0.961,1.022-1.586-0.461-2.071c-1.028-0.338-1.246-2.002-0.41-3.037c0.811-1.002,0.698-1.549-0.516-2.063
			c-1.183-0.5-1.374-1.689-0.555-2.759c0.665-0.87,1.292-1.578-0.435-2.052c-1.134-0.313-1.384-1.865-0.571-2.789
			c0.699-0.795,1.44-1.406-0.239-2.01c-1.02-0.365-1.256-1.979-0.643-2.957c0.237-0.379,0.516-0.731,0.864-1.222
			c-1.762-0.582-1.959-1.905-2.06-3.407c-0.598-8.801,4.696-15.17,12.027-18.435c6.868-3.06,14.143-3.668,21.521-3.658
			c1.778,0.003,3.556,0.199,5.336,0.306c-0.237,0.045-0.476,0.088-1.213,0.221c0.63,0.435,1.078,0.59,1.269,0.902
			c1.066,1.729,2.129,3.467,3.04,5.279c0.179,0.354-0.32,1.504-0.496,1.501c-0.687-0.009-1.417-0.247-2.035-0.579
			c-0.278-0.15-0.335-0.719-0.482-1.102c-0.48-1.246-0.89-2.525-1.448-3.734c-0.772-1.674-2.222-2.564-3.916-2.338
			c0.474,0.4,0.906,0.629,1.142,0.986c1.095,1.66,2.227,3.308,3.131,5.07c0.231,0.449-0.321,1.301-0.514,1.969
			c-0.764-0.262-1.694-0.342-2.242-0.842c-0.513-0.467-0.6-1.388-0.912-2.092c-0.478-1.078-0.878-2.212-1.509-3.195
			c-1.034-1.612-3.079-2.307-4.377-1.655c2.808,2.069,3.341,2.774,4.34,5.913c0.24,0.756,0.692,1.674-0.466,2.078
			c-1.105,0.388-2.043,0.166-2.443-1.117c-0.244-0.785-0.488-1.572-0.751-2.35c-0.985-2.899-3.751-4.488-6.924-3.852
			c0.252,0.172,0.393,0.333,0.561,0.372c3.221,0.735,4.438,3.19,5.283,6.026c0.338,1.135-0.187,1.541-1.132,1.692
			c-1.369,0.22-2.114-0.442-2.594-2.226c-0.915-3.405-3.72-4.825-6.985-3.615c0.193,3.928-0.897,7.875,0.251,11.871
			c9.324-2.553,18.717-3.717,28.61-3.954c-0.41-1.062-0.575-2.567-1.135-2.733c-1.611-0.476-1.955-1.603-2.384-2.896
			C178.673,96.33,177.859,94.157,175.686,92.9 M179.621,128.895c-2.234,0.277-4.322,0.439-6.373,0.809
			c-4.138,0.745-8.255,1.609-12.384,2.41c-0.932,0.18-1.528,0.607-0.864,1.527c0.233,0.322,1.007,0.438,1.489,0.363
			c6.642-1.022,13.271-2.121,19.914-3.138c1.905-0.292,3.841-0.376,5.758-0.556c0.229-1.346-0.164-1.963-1.522-1.851
			c-1.002,0.083-2.016,0.017-3.028,0.017c0.343-1.957,1.331-2.865,3.754-3.422c-0.061-0.487-0.124-0.982-0.195-1.547
			c-2.278-0.139-4.031-1.01-5.264-3.33c1.675-0.08,3.032-0.144,4.365-0.207c0.389-1.42-0.173-1.894-1.463-1.785
			c-2.915,0.25-5.862,0.289-8.743,0.744c-5.571,0.881-11.106,1.979-16.651,3.016c-0.607,0.113-1.413,0.156-1.163,1.207
			c0.254,1.066,0.935,0.65,1.571,0.529c5.14-0.983,10.278-1.982,15.427-2.914c1.28-0.23,2.601-0.232,3.93-0.342
			c-0.17,2.289-1.221,3.383-3.172,3.733c-5.099,0.913-10.189,1.875-15.278,2.838c-1.255,0.237-1.738,0.835-0.74,2.015
			c0.256-0.065,0.496-0.144,0.742-0.188c5.093-0.95,10.178-1.948,15.286-2.817C177.046,125.661,178.816,126.82,179.621,128.895
			 M184.493,114.793c-0.092-2.152-0.101-2.254-2.103-2.082c-4.243,0.363-8.504,0.665-12.705,1.322
			c-4.296,0.672-8.526,1.759-12.793,2.618c-0.936,0.188-1.003,0.716-0.831,1.452c0.213,0.906,0.752,0.699,1.414,0.494
			c1.269-0.396,2.564-0.723,3.866-1.004C168.929,115.96,176.613,115.096,184.493,114.793 M183.484,109.414
			c0.051-1.882-0.004-2.066-1.692-1.9c-6.072,0.599-12.151,1.184-18.195,2.01c-2.965,0.404-5.859,1.328-8.741,2.007
			c0.2,1.972,0.2,1.972,1.738,1.569c6.771-1.771,13.65-2.867,20.641-3.265C179.321,109.717,181.405,109.555,183.484,109.414
			 M188.983,140.285c0.255-1.24-0.433-1.488-1.494-1.372c-5.253,0.583-10.52,1.07-15.757,1.774
			c-2.839,0.382-5.637,1.093-8.429,1.755c-0.416,0.099-0.701,0.747-1.046,1.141c0.495,0.196,0.986,0.407,1.491,0.574
			c0.123,0.042,0.293-0.067,0.445-0.097c3.576-0.685,7.135-1.485,10.733-2.021C179.589,141.346,184.282,140.862,188.983,140.285
			 M161.114,137.549c0.075,1.571,0.583,1.688,1.734,1.467c5.436-1.045,10.89-2.01,16.359-2.865c2.527-0.395,5.108-0.432,7.654-0.725
			c0.442-0.053,0.83-0.576,1.243-0.883c-0.47-0.254-0.936-0.514-1.412-0.754c-0.077-0.039-0.201,0.018-0.302,0.029
			c-5.097,0.586-10.206,1.076-15.284,1.794C167.774,136.083,164.488,136.883,161.114,137.549 M177.702,207.604
			c0.147,2.162,0.003,4.322-3.262,4.098v-7.206h-1.841v9.679c1.871-0.715,3.806-1.454,5.741-2.191
			c0.117,0.217,0.233,0.435,0.351,0.652c-0.603,0.456-1.206,0.912-2.093,1.584c1.029,0.051,1.89,0.094,3.045,0.151
			c0-1.937-0.068-3.624,0.02-5.303C179.736,207.694,179.294,207.125,177.702,207.604 M182.945,141.471
			c-0.101,2.717,0.087,2.871,2.578,2.235C185.674,141.281,185.371,141.006,182.945,141.471 M178.488,107.067
			c-0.008-2.429-0.611-2.8-2.882-1.882C175.987,107.568,175.987,107.568,178.488,107.067 M180.821,131.4
			c-0.124,2.428,0.285,2.732,2.602,2.02C183.561,131.143,183.209,130.855,180.821,131.4 M177.463,115.84
			c0.063,2.332,0.358,2.536,2.794,1.936C180.149,115.399,179.849,115.192,177.463,115.84 M181.974,136.33
			c-0.073,2.626,0.25,2.871,2.631,2.084C184.521,135.988,184.348,135.844,181.974,136.33 M176.759,110.387
			c-0.1,2.289,0.445,2.652,2.654,1.775C179.444,110.083,179.072,109.834,176.759,110.387"/>
		<path clip-path="url(#SVGID_14_)" fill-rule="evenodd" clip-rule="evenodd" fill="#FFFFFF" d="M179.202,163.617
			c-0.792,0.164-1.584,0.329-2.376,0.493c-0.037-0.067-0.074-0.136-0.111-0.204c0.241-0.188,0.466-0.406,0.726-0.56
			c0.973-0.575,1.94-1.161,2.94-1.683c2.774-1.447,4.127-3.71,4.092-6.841c-0.013-1.227,0.149-2.46,0.103-3.685
			c-0.031-0.84-0.07-2.027-1.243-1.924c-1.053,0.092-1.494,0.973-1.458,2.156c0.053,1.739-0.088,3.487-0.216,5.227
			c-0.145,1.973-1.237,3.295-2.918,4.086c0.411-1.707,0.947-3.412,1.203-5.158c0.197-1.354,0.196-2.784-0.016-4.133
			c-0.098-0.619-0.966-1.618-1.405-1.578c-1.016,0.096-1.822,0.805-1.766,2.096c0.057,1.328,0.023,2.66-0.008,3.99
			c-0.04,1.766-0.8,3.182-2.267,4.152c-1.883,1.247-3.811,2.424-5.714,3.641c-0.459,0.295-0.889,0.632-1.698,1.209
			c0.984,0.182,1.547,0.285,2.11,0.39c-2.244,0.546-2.769,0.405-3.225-0.945c1.299-0.654,2.626-1.286,3.919-1.982
			c3.285-1.767,4.893-4.569,4.984-8.265c0.013-0.509-0.036-1.03-0.143-1.527c-0.215-1.001-0.586-1.945-1.866-1.801
			c-1.208,0.138-2.089,1.252-2.048,2.43c0.133,3.855-1.49,6.354-5.392,8.002c-0.782-4.364-1.555-8.669-2.374-13.238
			c3.317-0.64,6.506-1.361,9.73-1.852c5.172-0.784,10.371-1.393,15.552-2.126c1.015-0.144,1.666,0.036,1.649,1.162
			c-0.064,4.439,0.101,8.911-1.602,13.153c-0.001,0-0.083,0.076-0.083,0.076c-0.323-0.018-0.646-0.035-1.101-0.059
			c1.389-2.768,1.405-5.586,1.159-8.407c-0.045-0.521-0.686-0.988-1.052-1.479c-0.436,0.547-1.139,1.045-1.25,1.65
			c-0.209,1.146-0.002,2.359-0.103,3.533c-0.202,2.354-0.365,4.742-2.424,6.415c-1.466,1.19-2.901,2.419-4.349,3.631
			L179.202,163.617z"/>
		<path clip-path="url(#SVGID_14_)" fill-rule="evenodd" clip-rule="evenodd" d="M179.162,163.663
			c1.448-1.212,2.883-2.44,4.349-3.631c2.059-1.673,2.222-4.061,2.424-6.415c0.101-1.174-0.106-2.388,0.103-3.533
			c0.111-0.605,0.814-1.104,1.25-1.649c0.366,0.49,1.007,0.958,1.052,1.479c0.246,2.821,0.23,5.64-1.158,8.407
			c0.454,0.023,0.777,0.041,1.1,0.059C185.628,160.805,182.706,162.771,179.162,163.663"/>
		<path clip-path="url(#SVGID_14_)" fill-rule="evenodd" clip-rule="evenodd" fill="#FFFFFF" d="M175.686,92.9
			c2.173,1.258,2.987,3.43,3.716,5.627c0.43,1.293,0.773,2.422,2.385,2.896c0.559,0.165,0.724,1.672,1.134,2.732
			c-9.893,0.24-19.286,1.404-28.61,3.955c-1.147-3.996-0.058-7.943-0.251-11.871c3.266-1.211,6.07,0.209,6.985,3.615
			c0.48,1.783,1.225,2.445,2.594,2.227c0.945-0.152,1.47-0.559,1.132-1.693c-0.845-2.836-2.062-5.291-5.283-6.027
			c-0.168-0.039-0.309-0.199-0.561-0.371c3.173-0.635,5.94,0.951,6.924,3.851c0.264,0.779,0.507,1.565,0.751,2.351
			c0.4,1.283,1.338,1.504,2.443,1.117c1.159-0.404,0.706-1.322,0.466-2.078c-0.999-3.14-1.532-3.845-4.34-5.914
			c1.298-0.649,3.343,0.043,4.377,1.656c0.631,0.984,1.032,2.117,1.509,3.196c0.313,0.704,0.4,1.625,0.912,2.091
			c0.548,0.499,1.479,0.579,2.242,0.844c0.193-0.668,0.746-1.521,0.514-1.972c-0.904-1.762-2.036-3.409-3.131-5.067
			c-0.236-0.358-0.668-0.588-1.141-0.987c1.693-0.228,3.143,0.663,3.916,2.337c0.557,1.21,0.967,2.488,1.447,3.734
			c0.147,0.383,0.204,0.953,0.482,1.103c0.618,0.332,1.348,0.569,2.035,0.579c0.176,0.002,0.675-1.146,0.497-1.502
			c-0.912-1.813-1.975-3.551-3.04-5.28c-0.192-0.312-0.64-0.466-1.27-0.899c0.737-0.135,0.977-0.179,1.213-0.223
			C175.731,92.926,175.686,92.9,175.686,92.9"/>
		<path clip-path="url(#SVGID_14_)" fill-rule="evenodd" clip-rule="evenodd" fill="#FFFFFF" d="M179.621,128.895
			c-0.806-2.074-2.575-3.232-4.604-2.889c-5.108,0.869-10.193,1.867-15.287,2.817c-0.246,0.046-0.485,0.122-0.741,0.188
			c-0.998-1.179-0.515-1.777,0.739-2.015c5.089-0.963,10.18-1.925,15.279-2.838c1.951-0.349,3.002-1.444,3.172-3.733
			c-1.329,0.11-2.651,0.111-3.93,0.344c-5.149,0.931-10.287,1.929-15.428,2.912c-0.636,0.121-1.316,0.536-1.57-0.529
			c-0.25-1.051,0.556-1.094,1.163-1.207c5.545-1.036,11.08-2.135,16.65-3.016c2.882-0.455,5.828-0.494,8.744-0.742
			c1.29-0.11,1.852,0.363,1.462,1.783c-1.333,0.063-2.689,0.129-4.364,0.207c1.233,2.32,2.986,3.192,5.264,3.33
			c0.071,0.564,0.134,1.059,0.195,1.547c-2.424,0.557-3.411,1.465-3.755,3.422c1.013,0,2.027,0.066,3.029-0.017
			c1.358-0.112,1.751,0.505,1.522,1.851c-1.917,0.18-3.853,0.265-5.759,0.556c-6.642,1.016-13.271,2.114-19.913,3.137
			c-0.482,0.075-1.257-0.041-1.489-0.362c-0.664-0.918-0.068-1.348,0.864-1.527c4.129-0.801,8.245-1.664,12.384-2.409
			C175.299,129.334,177.387,129.171,179.621,128.895"/>
		<path clip-path="url(#SVGID_14_)" fill-rule="evenodd" clip-rule="evenodd" fill="#FFFFFF" d="M184.493,114.793
			c-7.88,0.303-15.564,1.167-23.152,2.801c-1.302,0.281-2.597,0.609-3.867,1.004c-0.662,0.205-1.201,0.412-1.414-0.494
			c-0.171-0.735-0.104-1.264,0.831-1.453c4.268-0.858,8.498-1.944,12.793-2.617c4.202-0.657,8.462-0.959,12.705-1.322
			C184.391,112.54,184.4,112.641,184.493,114.793"/>
		<path clip-path="url(#SVGID_14_)" fill-rule="evenodd" clip-rule="evenodd" fill="#FFFFFF" d="M183.483,109.414
			c-2.078,0.142-4.163,0.303-6.249,0.422c-6.99,0.396-13.869,1.494-20.641,3.265c-1.538,0.401-1.538,0.401-1.738-1.569
			c2.883-0.68,5.776-1.604,8.741-2.009c6.044-0.825,12.123-1.409,18.196-2.009C183.479,107.348,183.535,107.533,183.483,109.414"/>
		<path clip-path="url(#SVGID_14_)" fill-rule="evenodd" clip-rule="evenodd" fill="#FFFFFF" d="M188.983,140.285
			c-4.701,0.577-9.395,1.061-14.057,1.754c-3.597,0.537-7.157,1.337-10.733,2.021c-0.151,0.029-0.321,0.139-0.444,0.098
			c-0.505-0.168-0.996-0.379-1.492-0.575c0.345-0.394,0.63-1.042,1.046-1.141c2.792-0.662,5.59-1.373,8.429-1.755
			c5.237-0.704,10.504-1.191,15.758-1.774C188.551,138.797,189.239,139.045,188.983,140.285"/>
		<path clip-path="url(#SVGID_14_)" fill-rule="evenodd" clip-rule="evenodd" fill="#FFFFFF" d="M161.114,137.549
			c3.373-0.666,6.659-1.465,9.991-1.938c5.078-0.717,10.188-1.207,15.284-1.793c0.102-0.012,0.226-0.068,0.302-0.029
			c0.477,0.239,0.943,0.5,1.412,0.754c-0.413,0.307-0.801,0.83-1.243,0.881c-2.546,0.295-5.127,0.332-7.653,0.727
			c-5.47,0.855-10.923,1.82-16.36,2.865C161.697,139.237,161.188,139.12,161.114,137.549"/>
		<path clip-path="url(#SVGID_14_)" fill-rule="evenodd" clip-rule="evenodd" fill="#FFFFFF" d="M177.702,207.604
			c1.592-0.479,2.033,0.091,1.961,1.464c-0.088,1.679-0.021,3.366-0.021,5.303c-1.154-0.058-2.015-0.101-3.044-0.151
			c0.886-0.672,1.49-1.128,2.092-1.584c-0.117-0.219-0.233-0.436-0.35-0.652c-1.936,0.738-3.87,1.477-5.742,2.191v-9.679h1.841
			v7.206C177.705,211.926,177.848,209.766,177.702,207.604"/>
		<path clip-path="url(#SVGID_14_)" fill-rule="evenodd" clip-rule="evenodd" fill="#FFFFFF" d="M182.944,141.471
			c2.427-0.464,2.729-0.189,2.578,2.234C183.032,144.343,182.843,144.188,182.944,141.471"/>
		<path clip-path="url(#SVGID_14_)" fill-rule="evenodd" clip-rule="evenodd" fill="#FFFFFF" d="M178.488,107.067
			c-2.502,0.501-2.502,0.501-2.883-1.881C177.877,104.269,178.479,104.64,178.488,107.067"/>
		<path clip-path="url(#SVGID_14_)" fill-rule="evenodd" clip-rule="evenodd" fill="#FFFFFF" d="M180.821,131.4
			c2.388-0.545,2.739-0.258,2.602,2.021C181.105,134.132,180.697,133.829,180.821,131.4"/>
		<path clip-path="url(#SVGID_14_)" fill-rule="evenodd" clip-rule="evenodd" fill="#FFFFFF" d="M177.463,115.84
			c2.386-0.647,2.686-0.44,2.794,1.936C177.821,118.377,177.525,118.172,177.463,115.84"/>
		<path clip-path="url(#SVGID_14_)" fill-rule="evenodd" clip-rule="evenodd" fill="#FFFFFF" d="M181.974,136.33
			c2.374-0.486,2.547-0.342,2.631,2.084C182.224,139.201,181.9,138.957,181.974,136.33"/>
		<path clip-path="url(#SVGID_14_)" fill-rule="evenodd" clip-rule="evenodd" fill="#FFFFFF" d="M168.113,227.914v-5.055
			c0.245-0.043,0.49-0.086,0.735-0.13c0.193,0.563,0.537,1.126,0.542,1.691c0.01,0.911-0.131,1.844-0.366,2.726
			c-0.081,0.303-0.631,0.481-0.966,0.717L168.113,227.914z"/>
		<path clip-path="url(#SVGID_14_)" fill-rule="evenodd" clip-rule="evenodd" fill="#FFFFFF" d="M176.759,110.387
			c2.313-0.553,2.685-0.304,2.654,1.775C177.204,113.039,176.659,112.676,176.759,110.387"/>
	</g>
	
		<circle display="none" fill="none" stroke="#FFFFFF" stroke-width="8" stroke-linecap="round" stroke-miterlimit="10" stroke-dasharray="0,20" cx="164.667" cy="160.666" r="94.001"/>
</g>
<g id="Ebene_3">
	<g>
		<path fill="#FFFFFF" d="M238.765,241.098l4.56-4.988l1.349,1.232l-1.468,1.605l12.415,11.348l4.089-4.473l-3.767-3.443
			l1.467-1.606l5.116,4.677l-8.648,9.461l-1.349-1.232l1.447-1.584l-12.414-11.348l-1.448,1.583L238.765,241.098z"/>
	</g>
	<g>
		<path fill="#FFFFFF" d="M36.44,141.432l1.485-7.536c0.136-0.584,0.286-1.191,0.45-1.822c0.166-0.629,0.402-1.24,0.713-1.832
			s0.725-1.142,1.242-1.651c0.519-0.51,1.191-0.948,2.018-1.315c1.069-0.462,2.265-0.705,3.584-0.73
			c1.32-0.025,2.598,0.083,3.834,0.327c0.844,0.167,1.666,0.39,2.468,0.669c0.325,0.106,0.687,0.238,1.084,0.397
			c0.396,0.16,0.812,0.354,1.245,0.583c0.435,0.228,0.871,0.492,1.312,0.793s0.846,0.651,1.215,1.05
			c0.61,0.63,1.062,1.264,1.353,1.902c0.292,0.639,0.474,1.266,0.547,1.881c0.073,0.615,0.078,1.208,0.016,1.776
			c-0.06,0.569-0.131,1.111-0.212,1.625l-1.572,7.977l-1.854-0.366l0.43-2.178l-17.072-3.365l-0.429,2.178L36.44,141.432z
			 M39.212,137.147l17.07,3.364l0.417-2.113c0.042-0.215,0.077-0.416,0.104-0.604c0.026-0.188,0.061-0.39,0.104-0.604
			c0.065-0.435,0.114-0.942,0.147-1.526c0.033-0.583-0.09-1.196-0.371-1.841c-0.293-0.687-0.73-1.282-1.314-1.783
			c-0.584-0.501-1.22-0.927-1.905-1.275s-1.379-0.627-2.082-0.837c-0.703-0.209-1.318-0.367-1.849-0.472
			c-1.001-0.197-2.002-0.313-3.005-0.348c-1.002-0.035-1.993,0.105-2.972,0.42c-0.718,0.225-1.301,0.521-1.75,0.89
			c-0.45,0.368-0.81,0.77-1.079,1.205c-0.269,0.435-0.47,0.887-0.604,1.359c-0.133,0.472-0.254,0.93-0.362,1.376L39.212,137.147z"/>
	</g>
	<g>
		<path fill="#FFFFFF" d="M42.515,115.979l2.709-7.218l1.77,0.664l-0.59,1.573l18.146,1.17l0.591-1.573l1.77,0.664l-2.214,5.898
			l-1.77-0.664l0.717-1.91l-5.028-0.349l-2.562,6.825l4.037,2.989l0.664-1.77l1.77,0.665l-2.119,5.646l-1.77-0.665l0.602-1.601
			l-14.394-11.17l-0.559,1.489L42.515,115.979z M45.883,113.238l8.657,6.646l2.203-5.871L45.883,113.238z"/>
	</g>
	<g>
		<path fill="#FFFFFF" d="M57.68,85.172l1.633,0.953l-1.134,1.943l16.662,9.719l-2.01,3.447l-20.199-3.655l15.029,8.767l1.104-1.892
			l1.633,0.952l-3.356,5.752l-1.633-0.952l1.104-1.892l-15.029-8.767l-1.104,1.892l-1.633-0.953l3.159-5.416l19.999,3.643
			L57.03,90.038l-1.088,1.866l-1.633-0.953L57.68,85.172z"/>
	</g>
	<g>
		<path fill="#FFFFFF" d="M72.132,67.443l1.439,1.224l-1.457,1.714l14.698,12.493l-2.585,3.041l-19.244-7.145L78.241,90.04
			l1.418-1.668l1.44,1.224l-4.313,5.074l-1.439-1.224l1.418-1.669L63.507,80.508l-1.418,1.669l-1.439-1.224l4.061-4.777
			l19.049,7.097L70.638,72.119l-1.398,1.646l-1.44-1.224L72.132,67.443z"/>
	</g>
	<g>
		<path fill="#FFFFFF" d="M87.261,54.327l1.228,1.437l-1.158,0.99l3.475,12.619l3.604,4.219l1.711-1.462l1.229,1.437l-5.338,4.561
			l-1.228-1.437l1.71-1.461l-3.722-4.356l-11.687-5.364l-1.186,1.014l-1.229-1.437l4.926-4.21l1.229,1.437l-1.711,1.462l9.257,4.48
			l-2.916-9.899l-1.368,1.169l-1.229-1.437L87.261,54.327z"/>
	</g>
	<g>
		<path fill="#FFFFFF" d="M119.423,57.688c-0.098,0.251-0.239,0.569-0.426,0.954c-0.187,0.386-0.444,0.796-0.773,1.23
			c-0.329,0.436-0.76,0.882-1.29,1.34c-0.531,0.458-1.188,0.885-1.975,1.281c-1.018,0.514-2.016,0.821-2.994,0.924
			c-0.979,0.102-1.903,0.024-2.771-0.231c-0.869-0.256-1.65-0.674-2.347-1.253c-0.694-0.579-1.255-1.288-1.678-2.127
			c-0.36-0.714-0.585-1.396-0.675-2.045c-0.088-0.649-0.078-1.259,0.031-1.83c0.109-0.57,0.291-1.109,0.541-1.617
			c0.25-0.507,0.526-0.971,0.829-1.393c-0.564-0.319-1.165-0.711-1.802-1.174s-1.162-1.105-1.576-1.926
			c-0.334-0.661-0.516-1.331-0.546-2.01c-0.029-0.679,0.085-1.337,0.346-1.972c0.26-0.636,0.661-1.224,1.203-1.767
			c0.542-0.542,1.223-1.02,2.042-1.433c0.409-0.207,0.773-0.369,1.096-0.486c0.32-0.116,0.628-0.193,0.922-0.23
			c0.393-0.063,0.813-0.084,1.258-0.063c0.447,0.021,0.882,0.11,1.307,0.265c0.426,0.156,0.822,0.387,1.188,0.694
			c0.368,0.308,0.678,0.712,0.93,1.211c0.234,0.465,0.372,0.916,0.414,1.354c0.042,0.438,0.023,0.846-0.056,1.222
			c-0.123,0.779-0.404,1.475-0.844,2.089c-0.441,0.615-0.933,1.249-1.477,1.904l-1.122,1.372c0.52,0.187,0.97,0.346,1.351,0.479
			s0.799,0.274,1.256,0.425c0.457,0.151,0.992,0.323,1.605,0.518c0.613,0.194,1.403,0.451,2.37,0.77l1.773,0.517
			c-0.028-0.5-0.141-1.066-0.335-1.695c-0.195-0.63-0.463-1.329-0.807-2.098l2.143-1.081c0.325,0.733,0.58,1.36,0.766,1.882
			c0.186,0.523,0.321,0.993,0.408,1.408c0.086,0.416,0.139,0.797,0.158,1.146c0.02,0.349,0.029,0.725,0.03,1.126l5.386,1.551
			l-3.188,1.608L119.423,57.688z M107.318,51.027c0.283-0.322,0.556-0.645,0.816-0.967c0.262-0.321,0.529-0.653,0.804-0.993
			c0.159-0.215,0.35-0.468,0.571-0.759c0.221-0.29,0.401-0.605,0.543-0.945c0.14-0.34,0.225-0.702,0.254-1.087
			c0.029-0.384-0.056-0.772-0.254-1.165c-0.135-0.268-0.316-0.496-0.545-0.683c-0.229-0.188-0.453-0.326-0.678-0.415
			c-0.268-0.088-0.523-0.132-0.769-0.133c-0.245,0-0.472,0.026-0.681,0.076c-0.21,0.049-0.396,0.109-0.562,0.181
			c-0.164,0.072-0.3,0.135-0.406,0.188c-0.373,0.188-0.724,0.422-1.052,0.7s-0.592,0.595-0.791,0.953
			c-0.198,0.358-0.303,0.758-0.313,1.2s0.109,0.914,0.361,1.413c0.298,0.59,0.694,1.067,1.191,1.433
			C106.306,50.391,106.809,50.725,107.318,51.027z M107.764,53.827c-0.106,0.144-0.24,0.356-0.4,0.639
			c-0.16,0.283-0.295,0.625-0.405,1.028c-0.11,0.403-0.149,0.859-0.116,1.369s0.203,1.068,0.51,1.675
			c0.324,0.643,0.74,1.179,1.247,1.605c0.507,0.428,1.073,0.741,1.7,0.94c0.627,0.199,1.284,0.271,1.974,0.214
			c0.688-0.056,1.38-0.26,2.077-0.611c0.589-0.298,1.068-0.612,1.438-0.944s0.666-0.655,0.889-0.97
			c0.223-0.313,0.389-0.616,0.5-0.907c0.11-0.291,0.201-0.544,0.272-0.759l-5.306-1.725L107.764,53.827z"/>
	</g>
	<g>
		<path fill="#FFFFFF" d="M128.375,33.77l15.156-3.433l1.478,6.525l-2.106,0.477l-1.061-4.682l-4.271,0.968l3.844,16.97l2.165-0.49
			l0.417,1.843l-6.699,1.518l-0.418-1.843l2.136-0.484l-3.844-16.97l-4.272,0.968l1.061,4.682l-2.105,0.477L128.375,33.77z"/>
	</g>
	<g>
		<path fill="#FFFFFF" d="M166.229,28.584l0.108,1.887l-2.217,0.127l0.994,17.372l2.217-0.127l0.107,1.887l-6.948,0.397
			l-0.108-1.887l2.216-0.126l-0.478-8.356l-8.686,0.497l0.478,8.356l2.217-0.126l0.107,1.887l-6.979,0.399l-0.107-1.887l2.246-0.129
			l-0.994-17.372l-2.246,0.129l-0.108-1.887l6.979-0.399l0.108,1.887l-2.217,0.126l0.404,7.068l8.686-0.497l-0.404-7.068
			l-2.216,0.126l-0.107-1.887L166.229,28.584z"/>
	</g>
	<g>
		<path fill="#FFFFFF" d="M185.895,30.413l-0.742,6.589l-2.236-0.252l0.53-4.71l-7.542-0.849l-0.785,6.976l6.827,0.769l-0.221,1.968
			l-6.827-0.769l-0.939,8.347l7.542,0.849l0.587-5.217l2.236,0.252l-0.798,7.096l-14.458-1.627l0.211-1.879l2.176,0.245
			l1.946-17.291l-2.176-0.244l0.211-1.879L185.895,30.413z"/>
	</g>
	<g>
		<path fill="#FFFFFF" d="M200.317,33.552l8.098,2.884c0.319,0.113,0.659,0.246,1.018,0.395c0.359,0.149,0.711,0.322,1.054,0.519
			c0.344,0.197,0.668,0.43,0.975,0.698c0.307,0.268,0.573,0.592,0.8,0.969c0.359,0.595,0.562,1.305,0.608,2.127
			c0.045,0.824-0.075,1.641-0.364,2.45c-0.295,0.829-0.656,1.47-1.082,1.924c-0.427,0.453-0.859,0.792-1.3,1.018
			c-0.441,0.226-0.855,0.364-1.244,0.417c-0.39,0.052-0.682,0.087-0.877,0.102c0.167,0.123,0.312,0.238,0.432,0.345
			c0.121,0.107,0.265,0.253,0.432,0.44c0.56,0.688,0.914,1.477,1.063,2.369c0.147,0.892,0.042,1.846-0.32,2.863
			c-0.248,0.697-0.562,1.308-0.938,1.831c-0.377,0.524-0.803,0.946-1.276,1.265c-0.539,0.382-1.069,0.639-1.593,0.771
			c-0.524,0.132-1.044,0.181-1.561,0.145c-0.518-0.035-1.027-0.12-1.529-0.257c-0.503-0.137-0.999-0.292-1.487-0.466l-8.013-2.854
			l0.634-1.78l2.093,0.744l5.837-16.391l-2.092-0.745L200.317,33.552z M200.988,45.797l-2.677,7.518l2.883,1.027
			c0.621,0.221,1.219,0.406,1.792,0.558c0.571,0.151,1.1,0.175,1.583,0.07c0.463-0.11,0.948-0.384,1.454-0.819
			s0.909-1.078,1.211-1.926c0.154-0.434,0.245-0.885,0.274-1.352c0.029-0.468-0.035-0.93-0.19-1.389
			c-0.137-0.389-0.319-0.714-0.544-0.975c-0.226-0.26-0.475-0.487-0.746-0.68c-0.271-0.191-0.553-0.355-0.844-0.492
			c-0.291-0.135-0.569-0.25-0.832-0.344L200.988,45.797z M204.179,36.838l-2.526,7.094l2.063,0.734
			c0.396,0.142,0.797,0.279,1.205,0.413c0.408,0.136,0.815,0.228,1.224,0.276c0.407,0.051,0.818,0.043,1.234-0.021
			c0.416-0.064,0.814-0.219,1.199-0.465c0.392-0.264,0.715-0.589,0.969-0.977c0.255-0.386,0.442-0.75,0.563-1.089
			c0.101-0.282,0.171-0.586,0.213-0.911c0.042-0.324,0.037-0.655-0.013-0.992c-0.066-0.469-0.213-0.866-0.437-1.189
			c-0.225-0.324-0.478-0.596-0.761-0.813c-0.284-0.217-0.585-0.398-0.905-0.545c-0.319-0.146-0.617-0.278-0.893-0.397
			L204.179,36.838z"/>
	</g>
	<g>
		<path fill="#FFFFFF" d="M223.749,43.017l6.745,3.734l-0.915,1.653l-1.471-0.813l-3.807,17.78l1.469,0.813l-0.916,1.654
			l-5.511-3.052l0.916-1.653l1.785,0.987l1.08-4.923l-6.378-3.53l-3.547,3.558l1.653,0.915l-0.916,1.653l-5.276-2.92l0.916-1.654
			l1.496,0.828l13.152-12.607l-1.391-0.77L223.749,43.017z M225.969,46.75l-7.839,7.593l5.486,3.037L225.969,46.75z"/>
	</g>
	<g>
		<path fill="#FFFFFF" d="M238.199,51.436l6.002,4.791c0.457,0.391,0.927,0.805,1.409,1.24c0.483,0.438,0.916,0.93,1.297,1.478
			c0.381,0.548,0.679,1.169,0.892,1.863c0.213,0.695,0.292,1.493,0.237,2.396c-0.083,1.163-0.418,2.334-1.003,3.518
			c-0.586,1.183-1.272,2.267-2.059,3.251c-0.536,0.673-1.114,1.299-1.732,1.881c-0.243,0.24-0.527,0.5-0.852,0.778
			c-0.325,0.278-0.689,0.558-1.091,0.837c-0.403,0.281-0.839,0.547-1.309,0.798c-0.47,0.253-0.967,0.451-1.491,0.595
			c-0.84,0.251-1.61,0.359-2.312,0.323c-0.702-0.035-1.343-0.163-1.922-0.382c-0.58-0.22-1.108-0.488-1.584-0.805
			c-0.476-0.316-0.925-0.629-1.343-0.938l-6.354-5.072l1.179-1.477l1.735,1.385l10.855-13.599l-1.735-1.385L238.199,51.436z
			 M240.725,55.87l-10.855,13.599l1.683,1.344c0.171,0.136,0.333,0.26,0.488,0.369c0.154,0.111,0.317,0.234,0.488,0.371
			c0.355,0.259,0.784,0.537,1.286,0.835c0.502,0.298,1.103,0.472,1.805,0.519c0.745,0.059,1.474-0.057,2.188-0.344
			c0.714-0.287,1.384-0.655,2.01-1.104c0.625-0.447,1.192-0.934,1.703-1.462c0.51-0.526,0.934-1.001,1.271-1.423
			c0.637-0.797,1.201-1.632,1.693-2.506c0.493-0.873,0.826-1.817,0.998-2.831c0.131-0.739,0.137-1.394,0.018-1.963
			c-0.12-0.569-0.311-1.073-0.572-1.513c-0.263-0.439-0.571-0.826-0.928-1.163c-0.357-0.335-0.708-0.655-1.054-0.956L240.725,55.87z
			"/>
	</g>
	<g>
		<path fill="#FFFFFF" d="M261.515,72.28l5.414,7.001c0.293,0.38,0.582,0.776,0.863,1.19c0.282,0.414,0.52,0.844,0.712,1.289
			c0.192,0.445,0.314,0.914,0.365,1.404c0.051,0.491-0.007,1.004-0.175,1.539c-0.146,0.466-0.407,0.945-0.783,1.439
			c-0.377,0.493-0.795,0.918-1.253,1.272c-0.412,0.318-0.799,0.562-1.163,0.728c-0.363,0.168-0.699,0.282-1.006,0.343
			c-0.308,0.06-0.586,0.093-0.836,0.096c-0.25,0.005-0.474-0.007-0.669-0.032c-0.605-0.063-1.113-0.213-1.525-0.451
			c-0.412-0.238-0.793-0.486-1.145-0.745c0.142,0.446,0.231,0.839,0.267,1.178c0.035,0.34,0.007,0.665-0.082,0.974
			s-0.233,0.623-0.43,0.939s-0.463,0.668-0.798,1.053l-3.896,4.377l1.248,1.615l-1.496,1.156l-2.642-3.418l5.083-5.491
			c0.354-0.426,0.621-0.815,0.801-1.171s0.271-0.705,0.271-1.047c0-0.344-0.091-0.697-0.273-1.064
			c-0.183-0.367-0.458-0.789-0.826-1.265l-1.897-2.454l-6.526,5.047l1.394,1.803l-1.496,1.156l-4.257-5.506l1.496-1.156l1.321,1.709
			l13.765-10.644l-1.321-1.708L261.515,72.28z M262.883,77.139l-5.696,4.404l2.395,3.097c0.297,0.354,0.644,0.72,1.039,1.1
			c0.395,0.379,0.908,0.617,1.538,0.714c0.112,0.015,0.253,0.026,0.424,0.033c0.17,0.009,0.369-0.013,0.597-0.062
			c0.228-0.049,0.492-0.139,0.794-0.272c0.302-0.131,0.627-0.332,0.976-0.601c0.443-0.344,0.792-0.708,1.048-1.098
			c0.256-0.388,0.421-0.763,0.496-1.125c0.114-0.57,0.05-1.079-0.193-1.524c-0.245-0.446-0.604-0.993-1.079-1.641L262.883,77.139z"
			/>
	</g>
	<g>
		<path fill="#FFFFFF" d="M276.748,93.875l3.629,6.803l-1.668,0.89l-0.791-1.482l-12.866,12.849l0.791,1.481l-1.668,0.89
			l-2.966-5.558l1.668-0.89l0.96,1.8l3.583-3.544l-3.431-6.433l-4.911,1.057l0.89,1.667l-1.668,0.89l-2.839-5.32l1.668-0.89
			l0.805,1.509l17.893-3.426l-0.748-1.402L276.748,93.875z M276.581,98.215l-10.709,2.107l2.951,5.533L276.581,98.215z"/>
	</g>
	<g>
		<path fill="#FFFFFF" d="M283.111,106.146l5.346,14.592l-6.282,2.302l-0.743-2.027l4.507-1.651l-1.507-4.113l-16.338,5.985
			l0.764,2.086l-1.775,0.649l-2.363-6.451l1.775-0.649l0.753,2.056l16.338-5.985l-1.507-4.113l-4.507,1.651l-0.743-2.028
			L283.111,106.146z"/>
	</g>
	<g>
		<path fill="#FFFFFF" d="M276.486,130.599c-0.367,0.113-0.866,0.312-1.496,0.591c-0.631,0.279-1.237,0.712-1.816,1.298
			c-0.564,0.563-0.953,1.228-1.167,1.995c-0.215,0.768-0.244,1.543-0.087,2.327c0.103,0.51,0.288,0.972,0.555,1.388
			c0.267,0.415,0.602,0.757,1.002,1.022s0.852,0.451,1.353,0.555c0.5,0.103,1.036,0.098,1.606-0.017
			c0.569-0.114,1.036-0.311,1.399-0.587c0.363-0.277,0.633-0.535,0.809-0.775c0.181-0.22,0.33-0.469,0.448-0.747
			c0.118-0.278,0.223-0.617,0.317-1.012c0.093-0.397,0.188-0.865,0.284-1.404s0.201-1.188,0.314-1.945
			c0.075-0.443,0.181-0.98,0.32-1.609c0.139-0.631,0.375-1.26,0.709-1.888s0.791-1.193,1.375-1.698
			c0.583-0.505,1.355-0.854,2.317-1.048c0.707-0.142,1.414-0.156,2.121-0.043c0.707,0.112,1.368,0.353,1.983,0.718
			c0.615,0.366,1.149,0.865,1.604,1.499c0.454,0.632,0.771,1.391,0.947,2.272c0.095,0.471,0.144,0.94,0.146,1.409
			s-0.061,0.94-0.19,1.415c-0.125,0.494-0.314,0.945-0.568,1.354c-0.255,0.407-0.518,0.75-0.788,1.03
			c-0.031,0.047-0.073,0.091-0.126,0.132c-0.054,0.041-0.096,0.085-0.126,0.132l2.246-0.389l0.391,1.939l-6.588,1.324l-0.432-2.147
			c0.553-0.192,1.105-0.41,1.658-0.653c0.553-0.245,1.045-0.613,1.477-1.107c0.402-0.429,0.717-0.972,0.941-1.628
			c0.226-0.657,0.258-1.389,0.096-2.191c-0.122-0.608-0.326-1.113-0.61-1.516c-0.285-0.4-0.618-0.716-1.001-0.945
			s-0.785-0.373-1.203-0.431c-0.42-0.06-0.836-0.048-1.248,0.035c-0.608,0.122-1.095,0.338-1.461,0.646s-0.657,0.666-0.871,1.075
			c-0.213,0.408-0.369,0.853-0.467,1.329c-0.098,0.478-0.173,0.945-0.223,1.403c-0.051,0.356-0.101,0.712-0.153,1.067
			c-0.051,0.356-0.111,0.714-0.182,1.074c-0.082,0.505-0.208,1.074-0.376,1.708c-0.168,0.635-0.431,1.257-0.787,1.867
			c-0.357,0.611-0.844,1.156-1.461,1.637s-1.426,0.821-2.426,1.022c-0.98,0.196-1.862,0.2-2.645,0.013
			c-0.783-0.189-1.47-0.514-2.063-0.976c-0.593-0.461-1.077-1.019-1.453-1.676c-0.377-0.657-0.641-1.356-0.79-2.1
			c-0.161-0.803-0.177-1.644-0.048-2.523c0.137-0.842,0.366-1.504,0.688-1.985s0.639-0.907,0.953-1.274l-2.282,0.367l-0.408-2.029
			l7.059-1.419L276.486,130.599z"/>
	</g>
	<g>
		<path fill="#FFFFFF" d="M79.364,228.725l5.646,6.428c0.306,0.349,0.608,0.714,0.905,1.096s0.552,0.782,0.765,1.2
			c0.212,0.418,0.359,0.863,0.438,1.333c0.079,0.472,0.053,0.97-0.076,1.495c-0.112,0.459-0.335,0.938-0.669,1.437
			s-0.711,0.934-1.132,1.304c-0.378,0.332-0.737,0.589-1.077,0.772c-0.341,0.184-0.658,0.313-0.95,0.391s-0.56,0.125-0.8,0.144
			c-0.241,0.02-0.457,0.021-0.648,0.01c-0.588-0.025-1.087-0.14-1.498-0.344c-0.412-0.205-0.795-0.421-1.15-0.649
			c0.165,0.421,0.274,0.794,0.329,1.12c0.053,0.325,0.047,0.641-0.021,0.943c-0.067,0.305-0.187,0.615-0.358,0.934
			c-0.171,0.317-0.407,0.672-0.706,1.064l-3.494,4.458l1.301,1.481l-1.373,1.205l-2.756-3.137l4.572-5.604
			c0.315-0.433,0.549-0.825,0.702-1.179c0.152-0.354,0.219-0.696,0.198-1.027c-0.02-0.33-0.13-0.666-0.328-1.01
			c-0.198-0.342-0.489-0.732-0.873-1.17l-1.979-2.252l-5.992,5.263l1.455,1.655l-1.373,1.206l-4.44-5.055l1.373-1.206l1.378,1.569
			l12.637-11.101l-1.378-1.568L79.364,228.725z M80.977,233.329l-5.229,4.594l2.498,2.843c0.309,0.322,0.666,0.655,1.069,0.997
			c0.403,0.344,0.912,0.542,1.527,0.597c0.109,0.007,0.246,0.01,0.411,0.007c0.165-0.002,0.356-0.035,0.573-0.096
			c0.216-0.062,0.466-0.164,0.75-0.311c0.283-0.146,0.585-0.358,0.905-0.64c0.406-0.356,0.721-0.73,0.945-1.121
			c0.223-0.39,0.36-0.763,0.41-1.116c0.076-0.557-0.016-1.043-0.278-1.459s-0.642-0.922-1.14-1.518L80.977,233.329z"/>
	</g>
	<g>
		<path fill="#FFFFFF" d="M85.414,250.895c0.51-0.633,1.068-1.256,1.676-1.871c0.607-0.615,1.255-1.174,1.944-1.674
			s1.411-0.912,2.167-1.232c0.755-0.322,1.53-0.513,2.321-0.57c0.67-0.03,1.422,0.061,2.257,0.273
			c0.834,0.212,1.673,0.658,2.516,1.338c0.692,0.557,1.273,1.199,1.744,1.926c0.47,0.726,0.779,1.521,0.927,2.386
			c0.139,0.782,0.147,1.559,0.023,2.328s-0.334,1.524-0.632,2.265s-0.669,1.453-1.11,2.141c-0.442,0.688-0.911,1.338-1.409,1.956
			c-0.425,0.526-0.872,1.036-1.342,1.526c-0.469,0.49-0.977,0.951-1.521,1.38c-0.682,0.568-1.421,1.071-2.221,1.508
			c-0.799,0.437-1.68,0.714-2.643,0.831c-0.19,0.02-0.454,0.037-0.789,0.055c-0.336,0.016-0.728-0.023-1.177-0.111
			c-0.449-0.089-0.948-0.256-1.497-0.499c-0.549-0.244-1.117-0.602-1.704-1.074c-1.34-1.08-2.177-2.308-2.51-3.681
			c-0.334-1.371-0.263-2.8,0.209-4.281c0.293-0.979,0.689-1.871,1.187-2.674C84.328,252.335,84.855,251.588,85.414,250.895z
			 M97.169,248.784c-0.723-0.583-1.49-0.909-2.302-0.979c-0.813-0.07-1.643,0.066-2.493,0.413c-0.85,0.345-1.697,0.873-2.542,1.583
			c-0.845,0.709-1.661,1.553-2.45,2.532c-0.315,0.392-0.617,0.788-0.904,1.19c-0.286,0.401-0.55,0.828-0.79,1.281
			c-0.355,0.656-0.638,1.323-0.847,1.999c-0.209,0.675-0.31,1.339-0.301,1.991c0.008,0.652,0.141,1.273,0.396,1.865
			s0.67,1.117,1.243,1.578c0.572,0.461,1.156,0.752,1.754,0.873c0.597,0.121,1.199,0.122,1.804,0.002
			c0.606-0.12,1.205-0.338,1.796-0.657c0.591-0.318,1.153-0.685,1.687-1.099c0.533-0.415,1.025-0.857,1.477-1.325
			s0.847-0.911,1.187-1.334c0.728-0.903,1.329-1.827,1.805-2.772c0.475-0.944,0.787-1.855,0.934-2.73s0.109-1.691-0.109-2.452
			C98.295,249.982,97.847,249.33,97.169,248.784z"/>
	</g>
	<g>
		<path fill="#FFFFFF" d="M113.464,273.409c-0.22,0.32-0.458,0.653-0.713,0.997c-0.256,0.346-0.55,0.69-0.884,1.036
			c-0.334,0.347-0.714,0.666-1.141,0.961c-0.428,0.296-0.921,0.531-1.481,0.708c-0.193,0.071-0.454,0.144-0.78,0.216
			c-0.328,0.074-0.71,0.107-1.146,0.1c-0.438-0.009-0.931-0.082-1.483-0.221c-0.554-0.139-1.144-0.381-1.77-0.725
			c-1.339-0.736-2.302-1.603-2.891-2.599s-0.903-2.058-0.946-3.185c-0.042-1.127,0.133-2.287,0.526-3.484
			c0.392-1.195,0.901-2.361,1.525-3.496c0.456-0.83,0.967-1.641,1.536-2.432c0.182-0.252,0.442-0.584,0.779-0.996
			c0.335-0.41,0.737-0.829,1.204-1.257c0.467-0.427,0.991-0.828,1.573-1.204c0.581-0.375,1.217-0.648,1.907-0.82
			c0.664-0.165,1.419-0.213,2.264-0.146s1.7,0.339,2.564,0.814c0.593,0.325,1.09,0.677,1.49,1.051
			c0.4,0.375,0.721,0.755,0.961,1.142c0.24,0.386,0.414,0.762,0.521,1.13c0.106,0.367,0.158,0.715,0.154,1.044l0.959-1.623
			l1.677,0.922l-3.13,5.692l-1.855-1.021c0.145-0.384,0.269-0.74,0.372-1.068c0.104-0.33,0.185-0.666,0.241-1.01
			c0.148-0.912,0.061-1.776-0.262-2.594c-0.323-0.816-0.916-1.463-1.78-1.938c-0.289-0.158-0.597-0.29-0.926-0.394
			c-0.33-0.103-0.658-0.156-0.987-0.161c-0.777-0.03-1.502,0.145-2.175,0.524c-0.672,0.381-1.287,0.837-1.844,1.369
			c-0.378,0.366-0.728,0.753-1.051,1.159c-0.323,0.407-0.618,0.803-0.884,1.186c-0.266,0.384-0.493,0.737-0.684,1.063
			c-0.19,0.326-0.34,0.59-0.453,0.793c-0.149,0.271-0.32,0.603-0.513,0.992c-0.192,0.392-0.378,0.818-0.557,1.283
			c-0.178,0.465-0.338,0.956-0.479,1.475c-0.141,0.517-0.236,1.039-0.282,1.565c-0.021,0.319-0.024,0.677-0.009,1.07
			c0.014,0.395,0.093,0.802,0.237,1.223c0.143,0.421,0.367,0.827,0.673,1.214c0.305,0.389,0.736,0.736,1.296,1.043
			c0.406,0.224,0.848,0.385,1.325,0.48c0.476,0.097,0.958,0.104,1.446,0.019c0.505-0.076,0.963-0.237,1.375-0.485
			c0.411-0.247,0.779-0.525,1.104-0.833c0.322-0.308,0.597-0.614,0.82-0.922c0.224-0.307,0.406-0.566,0.544-0.776L113.464,273.409z"
			/>
	</g>
	<g>
		<path fill="#FFFFFF" d="M138.783,268.222l-0.579,1.732l-1.431-0.478l-8.037,4.102l2.732,11.859l1.623,0.543l-0.579,1.732
			l-6.326-2.114l0.579-1.733l1.925,0.644l-2.054-9.89l-2.982,1.448l-2.032,6.078l2.063,0.69l-0.579,1.732l-6.409-2.142l0.579-1.733
			l2.035,0.681l5.333-15.953l-2.035-0.68l0.579-1.732l6.409,2.143l-0.579,1.732l-2.063-0.689l-2.464,7.279l9.505-4.926l-1.926-0.644
			l0.579-1.732L138.783,268.222z"/>
	</g>
	<g>
		<path fill="#FFFFFF" d="M153.785,269.445l0.693,3.961l-2.017-0.227l-1.846-4.09L153.785,269.445z"/>
	</g>
	<g>
		<path fill="#FFFFFF" d="M175.236,270.839l0.031,1.825l-2.175,0.038l0.325,18.645l-3.856,0.067l-7.109-18.527l0.293,16.819
			l2.116-0.037l0.032,1.826l-6.438,0.112l-0.031-1.826l2.116-0.037l-0.293-16.818l-2.116,0.037l-0.032-1.826l6.061-0.105
			l7.02,18.354l-0.29-16.645l-2.088,0.037l-0.031-1.826L175.236,270.839z"/>
	</g>
	<g>
		<path fill="#FFFFFF" d="M178.943,269.104l3.157-0.459l-1.795,4.188l-2.01,0.291L178.943,269.104z"/>
	</g>
	<g>
		<path fill="#FFFFFF" d="M193.87,267.247l8.021-2.977c0.435-0.161,0.883-0.313,1.347-0.454s0.929-0.236,1.396-0.285
			c0.466-0.05,0.933-0.027,1.4,0.066c0.469,0.096,0.925,0.297,1.37,0.605c0.388,0.269,0.755,0.648,1.102,1.138
			c0.347,0.491,0.618,0.998,0.813,1.523c0.175,0.472,0.287,0.899,0.336,1.282c0.051,0.384,0.059,0.727,0.026,1.027
			c-0.032,0.302-0.084,0.567-0.151,0.799c-0.07,0.232-0.144,0.435-0.224,0.609c-0.232,0.539-0.518,0.965-0.856,1.276
			c-0.338,0.31-0.678,0.592-1.017,0.842c0.452-0.004,0.839,0.027,1.163,0.093c0.323,0.066,0.615,0.186,0.875,0.356
			c0.26,0.172,0.506,0.395,0.742,0.667c0.236,0.274,0.482,0.621,0.742,1.041l2.916,4.855l1.849-0.686l0.636,1.713l-3.915,1.453
			l-3.602-6.273c-0.292-0.448-0.574-0.807-0.851-1.076c-0.275-0.27-0.57-0.453-0.887-0.553c-0.317-0.099-0.67-0.116-1.061-0.054
			c-0.392,0.063-0.859,0.194-1.405,0.397l-2.812,1.043l2.775,7.477l2.066-0.767l0.636,1.713l-6.308,2.341l-0.636-1.713l1.958-0.727
			l-5.854-15.77l-1.957,0.727L193.87,267.247z M198.746,267.385l2.422,6.526l3.549-1.317c0.411-0.173,0.85-0.388,1.313-0.643
			c0.465-0.254,0.832-0.658,1.103-1.213c0.046-0.1,0.097-0.227,0.154-0.382c0.056-0.154,0.094-0.345,0.114-0.569
			c0.02-0.224,0.013-0.494-0.022-0.812c-0.035-0.315-0.126-0.674-0.273-1.073c-0.189-0.507-0.425-0.936-0.709-1.283
			c-0.285-0.348-0.583-0.607-0.896-0.781c-0.494-0.27-0.981-0.357-1.463-0.262c-0.481,0.098-1.09,0.271-1.824,0.522L198.746,267.385
			z"/>
	</g>
	<g>
		<path fill="#FFFFFF" d="M216.813,269.639c-0.411-0.701-0.795-1.445-1.154-2.231c-0.359-0.785-0.651-1.59-0.874-2.411
			c-0.224-0.822-0.351-1.644-0.383-2.465c-0.032-0.82,0.064-1.611,0.292-2.371c0.209-0.638,0.562-1.309,1.057-2.012
			c0.496-0.705,1.21-1.33,2.145-1.877c0.768-0.449,1.574-0.764,2.42-0.945s1.699-0.188,2.561-0.02
			c0.779,0.148,1.508,0.416,2.184,0.805s1.307,0.854,1.893,1.396c0.586,0.541,1.121,1.141,1.605,1.799
			c0.485,0.656,0.93,1.327,1.329,2.011c0.342,0.584,0.658,1.184,0.95,1.796c0.291,0.614,0.541,1.252,0.749,1.913
			c0.289,0.839,0.497,1.709,0.62,2.611c0.125,0.901,0.07,1.823-0.162,2.765c-0.048,0.187-0.125,0.438-0.229,0.758
			c-0.105,0.318-0.279,0.672-0.522,1.061s-0.577,0.795-0.999,1.223c-0.422,0.426-0.958,0.83-1.609,1.211
			c-1.485,0.869-2.93,1.215-4.331,1.038c-1.401-0.175-2.712-0.749-3.927-1.716c-0.813-0.623-1.506-1.309-2.08-2.061
			C217.773,271.165,217.262,270.406,216.813,269.639z M219.016,257.9c-0.801,0.469-1.379,1.069-1.734,1.803
			c-0.354,0.734-0.521,1.561-0.498,2.477c0.02,0.918,0.213,1.896,0.576,2.939c0.363,1.042,0.863,2.105,1.496,3.189
			c0.255,0.434,0.52,0.856,0.793,1.268c0.273,0.41,0.578,0.809,0.916,1.193c0.488,0.565,1.012,1.066,1.568,1.502
			s1.142,0.766,1.754,0.99c0.613,0.224,1.24,0.32,1.885,0.291c0.644-0.029,1.282-0.23,1.916-0.602
			c0.635-0.371,1.115-0.813,1.439-1.328c0.326-0.516,0.541-1.078,0.645-1.688c0.102-0.607,0.11-1.246,0.021-1.912
			c-0.086-0.666-0.229-1.32-0.428-1.967c-0.198-0.645-0.436-1.262-0.713-1.851s-0.551-1.116-0.824-1.583
			c-0.586-1.002-1.238-1.893-1.951-2.672c-0.715-0.781-1.454-1.396-2.221-1.843c-0.766-0.448-1.543-0.704-2.332-0.771
			C220.536,257.273,219.767,257.461,219.016,257.9z"/>
	</g>
	<g>
		<path fill="#FFFFFF" d="M227.262,250.813l5.209-4.303l1.163,1.408l-1.677,1.385l10.711,12.969l4.673-3.859l-3.25-3.935
			l1.678-1.386l4.413,5.344l-9.883,8.162l-1.164-1.408l1.654-1.366l-10.711-12.97l-1.654,1.367L227.262,250.813z"/>
	</g>
</g>
<g id="Ebene_2">
	
		<circle fill="none" stroke="#FFFFFF" stroke-width="6" stroke-linecap="round" stroke-miterlimit="10" stroke-dasharray="0,17" cx="164.333" cy="161" r="94.667"/>
</g>
</svg>
